<svg width="30" height="16" fill="none" xmlns="http://www.w3.org/2000/svg"><path opacity=".5" d="M3.354 15.758c-.905-.877-1.61-1.997-2.114-3.36C.745 11.035.498 9.575.498 8.016c0-1.596.261-3.094.784-4.494C1.805 2.112 2.565.96 3.564.064h1.974v.182a9.762 9.762 0 0 0-2.352 3.528 11.637 11.637 0 0 0-.042 8.358 10.166 10.166 0 0 0 2.184 3.43v.196H3.354Zm8.475-10.416c-.093-.392-.257-.686-.49-.882-.224-.196-.55-.294-.98-.294-.644 0-1.12.261-1.428.784-.299.513-.453 1.353-.462 2.52a2.23 2.23 0 0 1 .98-.868c.43-.215.896-.322 1.4-.322.607 0 1.143.13 1.61.392.467.261.83.644 1.092 1.148.261.495.392 1.092.392 1.792 0 .663-.135 1.255-.406 1.778a2.833 2.833 0 0 1-1.162 1.204c-.513.29-1.125.434-1.834.434-.97 0-1.736-.215-2.296-.644-.55-.43-.938-1.027-1.162-1.792-.215-.775-.322-1.727-.322-2.856 0-1.708.294-2.996.882-3.864.588-.877 1.517-1.316 2.786-1.316.98 0 1.74.266 2.282.798.541.532.854 1.195.938 1.988h-1.82ZM10.4 7.89c-.495 0-.91.145-1.246.434-.336.29-.504.71-.504 1.26s.154.985.462 1.302c.317.317.76.476 1.33.476.504 0 .9-.154 1.19-.462.299-.308.448-.723.448-1.246 0-.541-.145-.97-.434-1.288-.28-.317-.695-.476-1.246-.476Zm11.951-3.402h-4.536v2.394c.196-.243.476-.439.84-.588a2.876 2.876 0 0 1 1.162-.238c.747 0 1.358.163 1.834.49.476.327.821.747 1.036 1.26a4.1 4.1 0 0 1 .322 1.624c0 1.073-.308 1.937-.924 2.59-.607.653-1.475.98-2.604.98-1.064 0-1.913-.266-2.548-.798s-.994-1.227-1.078-2.086h1.904c.084.373.27.672.56.896.299.224.677.336 1.134.336.55 0 .966-.173 1.246-.518.28-.345.42-.803.42-1.372 0-.579-.145-1.017-.434-1.316-.28-.308-.695-.462-1.246-.462-.392 0-.719.098-.98.294a1.604 1.604 0 0 0-.56.784h-1.876V2.766h6.328v1.722Zm1.87 11.27v-.196a9.993 9.993 0 0 0 2.17-3.43 11.3 11.3 0 0 0 .77-4.116c0-1.456-.27-2.87-.812-4.242A9.613 9.613 0 0 0 24.012.246V.064h1.974c.998.896 1.76 2.049 2.282 3.458.522 1.4.784 2.898.784 4.494 0 1.559-.252 3.02-.756 4.382-.495 1.363-1.195 2.483-2.1 3.36h-1.974Z" fill="#000"/></svg>